<?xml version="1.0" standalone="no"?>
<!DOCTYPE svg PUBLIC "-//W3C//DTD SVG 20010904//EN"
 "http://www.w3.org/TR/2001/REC-SVG-20010904/DTD/svg10.dtd">
<svg version="1.0" xmlns="http://www.w3.org/2000/svg"
 width="518.000000pt" height="381.000000pt" viewBox="0 0 518.000000 381.000000"
 preserveAspectRatio="xMidYMid meet">
<g transform="translate(0.000000,381.000000) scale(0.100000,-0.100000)"
fill="#ffffff" stroke="none">
<path d="M0 1905 c0 -1905 0 -1905 2590 -1905 2590 0 2590 0 2590 1905 0 1905
0 1905 -2590 1905 -2590 0 -2590 0 -2590 -1905z m2597 1679 c3 -8 11 -13 18
-10 10 3 12 -4 9 -27 -3 -31 -35 -67 -58 -67 -12 0 -30 -37 -40 -81 -3 -14
-17 -31 -31 -39 -14 -7 -25 -17 -25 -22 0 -4 -12 -8 -27 -8 -24 0 -78 -13
-172 -42 -49 -15 -140 -59 -111 -54 14 3 61 18 105 34 44 16 103 33 130 37 28
4 57 11 65 15 9 5 20 2 28 -6 11 -12 8 -14 -17 -14 -77 0 -235 -47 -337 -100
-65 -34 -64 -33 -64 -22 0 4 16 14 36 21 19 7 33 15 31 18 -3 2 -21 -3 -41
-11 -26 -11 -36 -21 -34 -33 2 -12 -3 -18 -14 -17 -10 1 -15 -2 -13 -7 9 -13
-30 -30 -43 -19 -8 7 -9 7 -3 -1 6 -7 -16 -35 -65 -81 -152 -145 -250 -327
-284 -528 -15 -92 -18 -97 -34 -75 -12 17 -15 16 -43 -13 -17 -18 -35 -32 -42
-32 -6 0 -11 -4 -11 -10 0 -5 -7 -7 -15 -4 -10 4 -15 0 -15 -12 0 -26 11 -40
36 -48 40 -12 85 -73 94 -129 18 -105 22 -123 42 -175 25 -63 35 -64 14 -1 -8
24 -17 55 -20 69 -35 180 -38 207 -19 214 25 10 41 -12 48 -67 4 -29 11 -59
15 -67 5 -9 11 -36 15 -60 4 -25 12 -51 18 -59 6 -7 12 -19 13 -26 3 -23 36
-85 45 -85 5 0 9 -11 9 -25 0 -15 6 -25 15 -25 13 0 38 -33 40 -55 2 -23 18
-45 36 -50 10 -4 18 -9 16 -13 -3 -10 59 -71 108 -107 22 -17 45 -37 52 -45 7
-8 13 -11 13 -7 0 4 12 -4 28 -18 15 -14 32 -23 39 -21 6 3 21 -4 34 -15 20
-17 26 -20 44 -19 3 1 13 -6 21 -15 9 -8 23 -15 32 -15 9 0 36 -7 60 -15 24
-9 66 -18 94 -20 28 -3 54 -8 57 -11 11 -12 -113 4 -169 21 -179 55 -349 173
-467 325 -57 73 -128 205 -118 220 3 5 2 10 -4 10 -13 0 -34 72 -51 170 -13
74 -24 100 -36 87 -8 -8 13 -139 33 -202 85 -272 288 -496 547 -603 65 -26
204 -61 247 -62 15 0 31 -6 37 -13 25 -30 -221 19 -301 60 -35 18 -46 11 -15
-9 38 -24 262 -86 284 -78 16 5 60 -52 62 -82 3 -40 4 -40 46 -43 30 -2 36 1
36 19 1 45 5 64 12 60 4 -3 8 2 8 11 0 9 5 13 10 10 6 -3 13 0 16 9 3 9 26 17
57 21 68 9 200 51 257 81 53 28 41 32 -16 5 -108 -52 -324 -92 -324 -61 0 6
17 10 38 10 49 0 161 25 228 50 234 87 429 267 534 492 31 66 80 241 80 285 0
21 2 22 21 12 15 -8 19 -8 15 0 -4 6 -3 11 3 11 13 0 66 49 59 55 -12 12 -66
11 -83 -1 -11 -8 -15 -14 -9 -14 5 0 2 -6 -7 -13 -11 -8 -25 -53 -39 -122 -53
-267 -229 -501 -474 -630 -97 -51 -229 -94 -290 -95 -51 0 -42 8 15 14 25 3
70 14 102 26 31 12 62 18 69 14 8 -5 9 -2 5 9 -4 11 -2 14 9 10 7 -3 14 -1 14
4 0 5 7 10 16 10 29 0 133 57 129 71 -3 7 1 12 8 11 26 -3 38 1 31 13 -4 6 -3
8 3 5 6 -4 14 0 17 9 3 8 10 13 16 9 5 -3 15 3 22 15 7 11 19 20 27 20 8 0 12
3 8 6 -3 3 8 19 24 35 16 15 29 33 29 39 0 6 5 8 10 5 11 -7 31 35 23 47 -2 4
4 5 13 1 11 -4 15 -2 11 4 -4 6 5 23 18 37 14 15 25 34 25 42 0 7 4 14 10 14
5 0 13 12 16 28 4 15 10 32 14 37 9 12 31 78 28 85 -1 3 4 15 11 27 11 21 27
91 36 157 3 15 9 34 15 41 6 7 7 15 2 17 -17 6 -23 56 -8 70 9 10 11 20 5 31
-5 9 -14 40 -19 70 -20 104 -91 295 -119 317 -4 3 -12 17 -18 33 -7 15 -17 27
-23 27 -6 0 -9 4 -6 9 3 5 -1 11 -9 15 -8 3 -16 0 -17 -7 -4 -35 -7 -68 -9
-124 -5 -99 -17 -59 -21 65 -3 108 -4 113 -23 106 -33 -12 -643 -16 -650 -4
-7 11 -13 11 236 15 92 1 171 5 177 9 6 3 13 3 15 -2 3 -4 27 -6 54 -5 26 2
72 4 101 5 37 1 52 6 52 15 0 30 -54 83 -133 131 -85 52 -230 124 -244 121 -4
-1 -15 0 -23 3 -33 12 -112 28 -134 28 -13 0 -29 7 -36 15 -11 13 -7 15 22 15
52 0 214 -43 289 -77 286 -130 475 -371 534 -680 10 -51 21 -93 26 -93 5 0 9
-6 9 -13 0 -7 13 -26 30 -42 26 -24 30 -26 36 -11 6 16 7 16 19 0 8 -12 14
-14 19 -5 4 6 12 9 17 6 5 -4 16 -2 26 3 15 9 14 10 -4 16 -12 4 -26 5 -32 4
-5 -2 -26 14 -45 35 -24 27 -36 52 -41 85 -15 107 -72 273 -95 279 -13 4 -13
3 0 -6 8 -5 11 -13 8 -17 -4 -3 2 -24 13 -46 27 -53 74 -257 62 -269 -6 -6
-10 -5 -10 3 -1 65 -49 231 -94 323 -45 90 -44 89 -23 81 9 -3 12 -2 9 4 -4 6
-13 9 -20 8 -8 -2 -29 19 -49 46 -81 115 -220 232 -351 298 -72 37 -204 76
-279 84 -74 8 -91 23 -21 18 48 -3 197 -39 226 -54 29 -16 69 -30 69 -24 0 18
-221 93 -277 94 -37 0 -72 22 -85 52 -7 15 -20 28 -28 29 -13 0 -13 1 0 7 8 4
16 23 18 42 2 19 10 40 18 46 7 6 12 14 9 17 -3 4 -2 5 1 3 3 -3 17 -1 30 4
15 6 24 6 24 0 0 -6 -9 -10 -19 -10 -25 0 -51 -37 -51 -72 0 -52 35 -76 150
-103 213 -48 368 -134 516 -287 146 -150 231 -312 269 -511 18 -94 41 -127 90
-127 34 0 57 19 74 60 10 22 11 20 7 -17 -2 -30 0 -43 9 -43 7 0 17 -12 23
-28 10 -29 1 -64 -22 -87 -10 -10 -12 -27 -9 -54 5 -33 1 -44 -21 -66 -14 -14
-31 -23 -36 -20 -6 3 -10 0 -10 -7 -1 -8 -7 -6 -18 7 -29 33 -41 28 -54 -23
-13 -54 -13 -55 1 -60 7 -2 8 4 4 15 -3 10 -3 15 2 11 4 -4 17 -2 29 4 20 11
20 10 3 -9 -9 -11 -24 -44 -33 -74 -24 -81 -91 -212 -151 -297 -30 -41 -51
-77 -48 -80 6 -6 11 0 75 84 53 71 100 161 138 263 25 70 52 104 48 64 0 -10
5 -17 12 -15 8 1 12 -3 9 -10 -2 -7 -13 -13 -25 -12 -13 0 -18 -4 -15 -13 3
-7 1 -13 -5 -13 -6 0 -13 -14 -17 -30 -8 -37 -33 -89 -53 -112 -8 -10 -12 -18
-8 -18 11 0 -67 -113 -111 -160 -33 -35 -45 -42 -54 -33 -9 9 -9 16 -1 26 7 8
9 17 5 20 -9 10 -25 9 -19 -1 3 -5 -4 -15 -15 -23 -11 -8 -25 -21 -30 -31 -7
-13 -5 -15 11 -11 11 3 26 0 33 -6 8 -6 17 -8 21 -4 11 11 -13 -49 -26 -64
-14 -17 -59 -17 -52 0 2 7 -2 21 -10 32 -14 20 -15 20 -33 1 -14 -14 -15 -20
-5 -23 9 -4 6 -10 -10 -21 -13 -9 -27 -16 -31 -14 -5 1 -6 -2 -3 -7 13 -20
-172 -123 -313 -174 -72 -26 -92 -47 -75 -74 14 -22 49 -24 49 -3 0 8 -6 14
-13 12 -28 -5 -10 27 19 33 79 18 228 93 321 163 39 29 72 51 75 49 2 -3 -7
-14 -21 -25 -14 -10 -22 -23 -18 -28 4 -5 3 -6 -2 -2 -5 5 -15 -1 -23 -12 -8
-11 -19 -20 -24 -20 -5 0 -22 -11 -37 -25 -15 -14 -37 -28 -49 -31 -13 -4 -20
-11 -16 -17 4 -6 1 -7 -6 -3 -7 5 -21 0 -32 -10 -10 -9 -19 -14 -19 -11 0 4
-16 -2 -35 -13 -20 -11 -42 -20 -50 -20 -8 0 -15 -5 -15 -11 0 -6 -5 -9 -12
-7 -7 3 -19 -9 -28 -26 -28 -58 -96 -37 -85 26 3 17 8 35 10 39 9 14 -24 18
-35 4 -7 -8 -15 -13 -19 -11 -4 3 -13 1 -21 -5 -8 -5 -10 -9 -5 -9 6 0 12 -15
13 -34 3 -46 -32 -82 -75 -77 -7 1 -13 -4 -13 -10 0 -7 -6 -4 -14 6 -13 19
-15 18 -44 -13 -16 -18 -37 -32 -45 -32 -22 0 -47 28 -47 51 0 23 0 23 -36 4
-38 -19 -57 -19 -77 3 -26 28 -31 69 -13 97 15 23 15 25 -1 26 -10 1 -22 1
-27 0 -5 -1 -16 1 -25 5 -36 16 -41 13 -24 -16 15 -25 15 -33 3 -54 -18 -34
-50 -44 -67 -20 -7 10 -12 23 -10 28 4 12 -59 46 -84 46 -9 0 -28 9 -42 20
-15 12 -29 21 -32 20 -12 -1 -102 49 -114 64 -7 9 -18 13 -24 9 -6 -3 -7 -1
-3 6 4 7 -5 18 -23 29 -17 9 -31 20 -31 25 0 12 15 8 36 -10 53 -49 171 -112
284 -153 41 -15 76 -33 78 -39 2 -6 -3 -9 -12 -5 -12 4 -16 0 -16 -15 0 -25
22 -27 44 -5 33 33 11 54 -91 88 -90 30 -249 117 -246 134 2 6 -3 9 -10 7 -6
-3 -23 5 -37 16 -14 11 -18 17 -10 13 9 -4 12 -3 7 2 -5 5 -14 9 -20 9 -7 0
-11 8 -11 17 1 10 -3 16 -10 15 -6 -1 -9 5 -8 13 2 8 0 12 -4 8 -4 -4 -20 2
-35 13 -18 13 -37 18 -51 15 -23 -6 -23 -6 0 5 33 18 26 36 -24 62 -34 17 -51
35 -56 57 -2 8 -11 21 -20 28 -24 18 -51 78 -42 93 4 8 3 9 -4 5 -15 -9 -73
118 -75 165 -1 21 -5 35 -9 33 -4 -2 -9 5 -13 15 -8 28 -42 36 -64 17 -15 -14
-18 -14 -18 -1 0 8 7 16 16 17 47 5 57 2 68 -17 10 -17 11 -11 8 37 -4 73 -12
85 -35 58 -21 -24 -62 -26 -85 -3 -13 13 -16 27 -11 64 4 32 3 50 -5 55 -8 5
-10 2 -5 -7 4 -8 -1 -3 -12 10 -22 27 -20 65 4 92 8 8 14 34 14 56 0 52 31 93
70 93 17 0 30 -7 35 -17 5 -15 4 -16 -6 -5 -22 20 -57 14 -76 -14 -15 -24 -15
-29 -2 -53 21 -37 55 -51 91 -39 35 12 58 54 65 117 6 57 55 206 93 282 65
127 204 283 328 368 122 82 220 124 367 157 84 19 114 30 127 47 24 30 22 79
-4 113 -12 16 -15 23 -8 17 21 -19 33 -16 27 7 -7 27 29 66 66 69 4 1 10 -6
14 -15z m-180 -72 c-21 -23 -22 -65 -2 -82 11 -9 19 -9 35 3 12 8 17 18 12 21
-6 3 -12 2 -14 -4 -2 -5 -9 -6 -17 -1 -17 11 -8 39 14 47 21 8 55 -24 55 -51
0 -33 -29 -52 -98 -65 -35 -6 -103 -25 -150 -41 -48 -16 -96 -32 -106 -36 -14
-4 -17 -3 -11 7 5 9 4 11 -4 6 -6 -4 -9 -11 -6 -16 3 -4 -13 -17 -35 -29 -47
-24 -64 -27 -36 -6 11 8 15 15 9 15 -11 0 -28 -18 -28 -31 0 -14 -132 -105
-154 -106 -22 -2 -22 -1 -5 12 10 7 22 11 26 9 4 -3 12 5 18 16 6 11 15 18 19
15 5 -2 15 3 22 13 13 15 12 16 -3 3 -10 -7 -18 -10 -18 -5 -1 5 -8 0 -18 -11
-9 -11 -28 -22 -41 -23 -22 -3 -21 -1 10 26 77 67 244 158 342 186 33 10 62
25 70 36 6 11 16 20 20 20 5 0 -2 -16 -14 -37 -23 -36 -23 -36 2 -29 13 3 36
9 51 12 25 6 27 10 26 55 -1 34 4 55 17 69 10 11 20 20 23 20 3 0 -2 -8 -11
-18z m323 3 c16 -19 1 -19 -24 0 -16 12 -17 15 -4 15 8 0 21 -7 28 -15z m-32
-27 c17 -17 15 -41 -2 -35 -17 7 -52 -28 -38 -37 5 -3 12 4 16 16 5 22 6 22
19 4 13 -18 14 -18 32 0 20 20 20 21 0 -29 -3 -7 2 -13 12 -15 37 -3 59 -8 71
-16 9 -5 10 -1 3 16 -8 24 -7 55 3 66 3 3 6 -4 6 -15 0 -23 30 -46 75 -57 117
-28 368 -181 371 -225 2 -45 33 -70 35 -28 0 22 0 22 11 0 12 -25 37 -30 57
-10 11 10 12 9 6 -3 -5 -8 -13 -21 -19 -28 -12 -17 -19 -52 -8 -51 21 3 32 -2
26 -13 -4 -7 -3 -8 5 -4 9 6 9 11 0 22 -8 9 -8 14 -1 14 32 0 159 -222 202
-353 28 -84 53 -102 86 -63 13 14 25 22 28 18 3 -5 -7 -24 -22 -42 -25 -29
-31 -31 -50 -21 -19 10 -21 9 -16 -6 2 -10 -1 -8 -7 5 -19 34 -28 26 -17 -15
6 -21 10 -48 10 -60 0 -13 4 -23 10 -23 5 0 7 4 4 9 -8 13 17 38 45 45 20 4
32 0 49 -19 25 -27 19 -35 -6 -10 -20 20 -63 19 -71 0 -8 -22 4 -30 21 -16 20
17 36 6 36 -24 0 -29 -32 -49 -61 -40 -24 8 -34 31 -49 113 -15 87 -46 176
-91 264 -43 85 -45 93 -26 82 9 -6 9 -5 0 8 -7 8 -10 18 -6 21 3 4 1 7 -6 7
-8 0 -11 -7 -7 -17 7 -17 6 -17 -11 0 -16 16 -16 19 -3 28 13 9 12 10 -2 5
-22 -6 -42 25 -28 42 7 8 7 9 -1 3 -11 -9 -194 166 -190 182 1 5 -2 6 -7 3
-10 -6 -124 69 -116 77 3 3 -1 5 -8 4 -7 -1 -42 13 -78 29 -81 38 -175 69
-260 84 -92 17 -123 57 -80 100 23 23 31 25 48 8z m201 -34 c-15 -19 -1 -36
24 -29 16 5 18 4 8 -3 -11 -8 -5 -13 27 -22 40 -10 112 -47 112 -56 0 -3 -17
5 -39 15 -21 11 -67 30 -102 42 -35 12 -71 28 -79 36 -13 13 -12 14 8 8 16 -4
22 -2 22 8 0 8 -10 22 -22 31 -20 14 -19 14 14 -1 29 -13 35 -20 27 -29z
m-650 19 c-4 -23 3 -32 17 -26 11 4 15 2 12 -7 -2 -8 -33 -23 -69 -35 -67 -21
-196 -82 -205 -97 -3 -4 -10 -8 -17 -8 -6 0 5 11 25 25 20 14 42 25 47 25 6 0
11 5 11 10 0 6 5 10 11 10 6 0 25 6 42 14 18 8 49 22 70 30 24 10 37 21 37 34
0 10 3 22 7 25 8 9 13 9 12 0z m324 -76 c4 3 7 2 7 -4 0 -6 -9 -13 -21 -16
-22 -6 -18 -27 5 -27 15 0 42 -47 33 -57 -4 -3 -7 1 -7 9 0 22 -31 32 -47 15
-12 -12 -12 -16 2 -30 8 -9 22 -14 30 -10 11 3 13 1 9 -10 -8 -21 -41 -28 -55
-11 -7 9 -9 27 -4 51 9 46 15 74 17 90 1 9 5 9 13 3 7 -5 15 -7 18 -3z m537
-67 c8 -5 12 -11 10 -14 -3 -2 -14 2 -24 10 -22 15 -10 19 14 4z m62 -22 c-9
-9 -8 -16 6 -32 12 -15 9 -14 -13 4 -17 14 -32 27 -35 29 -3 2 3 1 12 -2 10
-3 20 -2 23 3 4 6 9 10 13 10 3 0 1 -5 -6 -12z m-1202 -11 c0 -2 -10 -12 -22
-23 -23 -19 -23 -19 -4 4 18 21 26 27 26 19z m495 -38 c-22 -10 -49 -19 -61
-19 -11 0 -45 -8 -75 -17 -30 -9 -60 -18 -66 -19 -29 -5 -170 -79 -197 -103
-16 -14 -25 -19 -21 -11 5 10 0 8 -16 -5 -39 -32 -199 -194 -199 -201 0 -4 -7
-12 -16 -18 -8 -6 -16 -18 -17 -27 -2 -8 -14 -30 -27 -49 -14 -19 -24 -36 -23
-37 1 -2 -9 -27 -23 -57 -14 -30 -27 -63 -29 -73 -2 -10 -13 -58 -25 -108 -12
-49 -22 -100 -22 -112 0 -13 -4 -20 -10 -17 -5 3 -15 0 -23 -6 -11 -9 -15 -9
-15 -1 0 6 5 11 11 11 6 0 9 7 5 15 -3 9 3 19 14 25 12 7 20 21 20 38 0 40 36
179 62 243 86 207 271 398 475 491 75 33 233 76 283 76 35 0 35 0 -5 -19z
m-565 -23 c-28 -26 -33 -27 -24 -2 3 9 10 14 14 11 5 -3 11 -1 15 5 3 5 9 10
13 10 4 0 -5 -11 -18 -24z m-95 -76 c4 -6 10 -8 15 -5 5 3 7 -6 4 -19 -4 -24
-3 -24 23 -11 15 8 28 13 30 12 1 -2 -23 -30 -54 -63 -144 -152 -228 -313
-270 -519 -14 -69 -23 -91 -41 -103 -31 -20 -72 -3 -72 32 0 13 5 26 12 28 14
5 58 -14 58 -25 0 -5 -4 -5 -10 -2 -5 3 -10 1 -10 -6 0 -8 -5 -7 -17 2 -16 13
-17 12 -4 -3 19 -25 40 -22 51 7 5 14 9 29 9 33 -1 4 -1 9 1 12 4 12 12 67 14
93 0 15 4 27 7 27 3 0 6 7 6 16 0 14 -2 14 -14 -2 -7 -10 -11 -24 -8 -32 2 -7
1 -11 -4 -8 -5 3 -14 -1 -21 -9 -22 -27 -57 -18 -69 16 -15 44 -14 46 10 15
37 -46 65 -27 94 64 31 95 64 162 76 154 8 -5 8 -8 -1 -14 -6 -4 -12 -13 -13
-21 -2 -8 -6 -20 -11 -28 -6 -9 -5 -12 5 -9 8 3 13 12 13 21 -1 9 2 14 7 11 5
-3 10 2 10 10 1 9 2 20 3 25 0 5 16 26 33 46 18 20 30 41 27 47 -6 10 -25 -10
-20 -22 1 -3 -10 -18 -26 -35 -15 -16 -28 -24 -28 -17 0 14 74 130 110 172 21
25 21 25 9 0 -6 -14 -20 -37 -30 -51 -18 -25 -16 -39 3 -39 5 0 6 5 3 10 -3 6
-1 10 5 10 6 0 13 7 17 16 3 9 22 32 42 50 36 34 36 34 8 30 -15 -3 -25 -1
-22 5 4 5 1 9 -4 9 -6 0 -11 7 -11 15 0 11 7 14 25 9 18 -4 27 -1 31 11 11 27
-12 42 -39 26 -20 -13 -21 -13 -8 2 15 19 37 22 46 7z m1558 3 c-7 -2 -21 -2
-30 0 -10 3 -4 5 12 5 17 0 24 -2 18 -5z m-1670 -125 c-4 -7 -26 -40 -49 -73
-46 -66 -103 -181 -129 -262 -15 -49 -40 -75 -33 -35 2 11 -3 17 -14 16 -10
-1 -15 3 -12 8 3 5 13 7 21 4 13 -5 30 24 35 59 0 6 12 27 24 47 13 21 24 42
24 46 0 5 11 25 24 45 13 19 22 38 18 41 -3 3 -1 6 5 6 5 0 14 10 20 23 6 12
23 37 39 55 29 33 41 41 27 20z m490 -70 c4 -10 7 -10 14 -1 8 12 54 9 75 -3
4 -3 8 1 8 8 0 10 2 10 9 -1 5 -7 22 -15 37 -17 139 -14 150 -23 148 -119 -2
-140 -4 -152 -22 -173 -21 -24 -18 -28 -58 63 -27 60 -89 113 -141 121 -116
17 -204 -34 -209 -121 -2 -41 1 -50 39 -89 23 -24 52 -47 65 -51 12 -3 22 -10
22 -15 0 -8 38 -23 53 -21 4 1 7 -6 7 -14 0 -8 8 -15 18 -15 9 0 23 -9 30 -20
7 -11 18 -20 26 -20 7 0 21 -9 31 -20 10 -11 22 -17 26 -14 5 3 9 0 9 -5 0 -6
7 -11 15 -11 8 0 15 -4 15 -8 0 -5 18 -21 39 -38 22 -16 37 -32 35 -35 -2 -4
7 -10 21 -13 15 -4 22 -11 19 -20 -3 -8 0 -17 7 -22 8 -5 10 -3 4 7 -6 11 -5
12 6 2 16 -15 33 -17 24 -3 -3 6 -2 10 2 10 5 0 17 14 28 32 16 28 18 55 19
234 1 118 -3 200 -8 197 -5 -4 -6 -1 -2 6 14 22 -14 66 -53 85 -30 14 -37 22
-33 38 3 14 7 16 13 7 4 -7 22 -17 40 -23 66 -22 71 -39 72 -275 1 -116 3
-211 5 -211 1 0 25 11 52 25 27 14 58 25 70 25 19 0 20 6 20 205 0 205 0 205
155 205 188 0 216 -8 245 -72 11 -24 20 -53 20 -65 0 -14 6 -23 16 -23 19 0
13 -24 -8 -28 -10 -2 -21 13 -33 45 -22 59 -31 70 -68 89 -42 22 -243 29 -273
9 -27 -18 -41 -84 -24 -115 7 -13 8 -20 3 -17 -8 5 -9 -55 -3 -211 0 -11 18
-13 83 -9 106 6 131 17 157 67 13 25 27 40 38 39 16 -1 16 -2 0 -6 -11 -3 -18
-14 -18 -29 0 -33 -25 -80 -47 -89 -10 -4 -67 -11 -128 -15 -221 -16 -292 -69
-413 -313 -98 -198 -151 -249 -285 -277 -162 -33 -317 79 -317 230 0 110 68
181 175 182 95 1 155 -62 123 -129 -16 -33 -78 -47 -78 -18 0 9 5 13 10 10 6
-3 10 -1 10 5 0 6 5 8 10 5 6 -3 10 -2 10 4 0 5 3 16 6 25 10 27 -39 62 -91
65 -48 2 -109 -24 -98 -42 3 -6 1 -7 -5 -3 -6 3 -16 -3 -22 -14 -6 -11 -7 -20
-3 -20 4 0 2 -4 -5 -9 -17 -10 -18 -114 -3 -119 6 -2 11 -13 11 -24 0 -10 20
-39 45 -63 38 -36 54 -44 103 -51 70 -10 162 -11 156 -3 -2 4 7 10 21 13 32 8
101 55 98 67 -2 5 3 8 10 6 6 -1 11 4 10 11 -2 6 1 12 5 12 5 0 14 11 20 24
12 28 2 77 -28 136 -17 33 -60 78 -60 63 0 -4 -5 -2 -12 5 -18 18 -28 15 -28
-9 0 -11 3 -18 8 -15 9 6 9 -121 -1 -130 -4 -4 -1 -14 6 -22 9 -12 9 -14 0 -9
-7 5 -25 -4 -43 -22 -29 -27 -89 -46 -100 -32 -3 3 -12 7 -20 9 -31 7 -50 35
-50 73 0 21 5 41 12 45 6 4 9 3 5 -2 -9 -15 20 -72 43 -84 30 -16 82 -5 107
23 47 51 36 141 -24 199 -49 47 -79 58 -163 58 -75 0 -107 -10 -160 -51 -79
-60 -105 -192 -57 -287 64 -129 272 -203 447 -158 158 41 214 93 311 294 42
86 85 160 109 186 57 61 141 97 231 99 86 1 119 -19 133 -81 6 -23 16 -42 23
-42 10 0 13 34 13 153 1 122 3 148 13 132 19 -32 14 -242 -6 -282 -10 -18 -21
-33 -25 -33 -10 0 -39 20 -29 20 13 0 -22 58 -45 74 -27 19 -129 22 -177 5
-31 -11 -31 -11 -30 -168 3 -221 5 -229 43 -236 69 -13 211 -12 244 1 18 7 30
9 27 5 -3 -5 4 -7 16 -4 16 4 17 8 7 14 -8 6 -9 9 -1 9 6 0 30 16 53 35 23 19
39 35 34 35 -4 0 0 8 8 18 9 9 19 27 22 39 8 27 33 53 49 53 6 0 4 -6 -5 -12
-9 -7 -21 -30 -28 -51 -6 -20 -29 -59 -50 -86 -59 -75 -112 -91 -295 -91 -145
0 -145 0 -147 207 -3 207 -3 207 -39 175 -20 -17 -51 -59 -69 -93 -29 -55 -32
-70 -31 -138 1 -99 -9 -140 -39 -162 -35 -24 -70 -33 -70 -18 0 7 3 10 6 6 9
-8 54 42 59 67 9 36 13 85 7 91 -9 8 -32 -17 -25 -28 3 -6 1 -7 -5 -3 -8 5
-12 0 -12 -13 0 -11 -7 -26 -15 -35 -8 -8 -15 -19 -15 -25 0 -6 -3 -11 -7 -11
-5 0 -27 -18 -51 -40 -24 -22 -46 -40 -49 -40 -4 0 -14 -6 -22 -14 -9 -8 -47
-23 -85 -35 -142 -44 -345 -15 -426 61 -13 13 -28 22 -32 21 -13 -5 -65 83
-73 123 -4 21 -7 58 -6 82 3 49 36 148 49 145 5 -1 15 8 21 20 7 12 30 35 51
50 32 23 54 29 117 34 43 3 86 5 96 5 9 0 17 2 17 6 0 4 -44 40 -98 80 -84 63
-142 124 -142 149 0 5 -7 22 -16 38 -23 43 -12 149 21 215 14 27 30 50 36 50
5 0 8 4 4 9 -3 5 -1 12 5 16 6 4 8 11 4 16 -3 5 -2 8 3 7 15 -4 53 13 53 24 0
6 3 9 6 5 3 -3 20 2 37 12 18 9 46 16 63 14 19 -1 37 3 44 12 15 18 27 19 33
3z m1332 -39 c4 -11 12 -19 19 -19 6 0 12 -10 12 -21 0 -24 -1 -23 -53 56 -21
34 -22 37 -5 21 12 -10 24 -27 27 -37z m85 -168 c0 -12 2 -13 8 -4 5 8 8 -2 9
-23 1 -20 5 -39 10 -43 13 -9 24 -41 14 -41 -15 0 -27 23 -41 75 -7 28 -17 54
-21 60 -5 5 -9 14 -9 20 1 16 30 -27 30 -44z m75 -71 c3 -6 -1 -7 -9 -4 -18 7
-21 14 -7 14 6 0 13 -4 16 -10z m-2042 -350 c8 0 18 7 21 16 4 9 9 14 13 10 9
-8 -27 -46 -44 -46 -7 0 -16 7 -20 16 -3 8 -12 13 -19 10 -16 -6 -17 -4 -7 20
6 16 8 15 24 -4 9 -12 24 -22 32 -22z m-113 10 c0 -5 -7 -7 -15 -4 -8 4 -12
10 -9 15 6 11 24 2 24 -11z m40 10 c0 -5 -2 -10 -4 -10 -3 0 -8 5 -11 10 -3 6
-1 10 4 10 6 0 11 -4 11 -10z m2127 -286 c2 -13 1 -14 -3 -4 -4 8 -16 23 -28
34 -21 18 -21 18 4 4 14 -9 26 -24 27 -34z m-368 -45 c-6 -30 -15 -58 -19 -64
-4 -5 -10 -31 -13 -57 -6 -46 -11 -56 -50 -99 -10 -11 -16 -23 -13 -27 6 -10
-686 1 -701 11 -15 9 -18 41 -3 32 5 -3 169 -7 364 -8 355 -2 355 -2 371 58
52 186 90 278 64 154z m-1799 -15 c28 -93 95 -216 162 -301 32 -40 55 -73 51
-73 -11 1 -43 26 -43 33 0 3 -10 17 -22 30 -39 40 -68 84 -102 154 -6 13 -15
23 -19 23 -5 0 -6 4 -2 9 3 5 -2 16 -10 25 -8 8 -14 19 -13 23 2 4 -3 27 -11
51 -9 28 -20 42 -30 41 -30 -3 -41 1 -41 15 0 9 8 12 27 8 21 -4 25 -2 20 12
-4 9 -2 16 3 16 5 0 18 -30 30 -66z m235 -352 c-3 -3 -11 0 -18 7 -9 10 -8 11
6 5 10 -3 15 -9 12 -12z m44 -89 c18 4 20 3 10 -9 -16 -20 -46 -17 -58 5 -13
24 -2 36 14 14 8 -10 20 -14 34 -10z m71 -53 c12 -7 12 -12 2 -22 -9 -9 -12
-9 -12 4 0 9 -6 19 -12 21 -7 3 -8 6 -3 6 6 0 17 -4 25 -9z m728 -77 c9 -15
10 -23 3 -23 -6 0 -11 7 -11 15 0 9 -10 20 -22 25 -18 8 -18 9 -4 7 10 -1 25
-12 34 -24z m-63 7 c-11 -18 15 -51 36 -45 14 5 17 3 13 -9 -3 -9 -10 -16 -14
-16 -5 0 -15 -3 -24 -6 -11 -4 -16 -1 -16 10 0 9 -4 16 -8 16 -5 0 -8 10 -6
23 1 12 3 25 3 30 1 4 6 7 12 7 5 0 7 -4 4 -10z m24 -165 c0 -5 -4 -3 -9 5 -5
8 -9 22 -9 30 0 16 17 -16 18 -35z m-674 -200 c11 -2 22 -4 25 -5 3 -1 8 -2
12 -1 13 2 23 -58 18 -107 -5 -45 -5 -44 -8 19 -3 65 -3 65 -77 78 -172 31
-281 -25 -280 -143 1 -74 22 -96 150 -162 113 -57 155 -92 155 -131 0 -69 -59
-109 -148 -100 -70 7 -121 46 -140 105 -8 23 -18 42 -23 42 -5 0 -9 -33 -9
-74 0 -73 0 -73 76 -96 94 -27 172 -24 235 12 64 35 84 68 84 138 0 51 -4 63
-30 90 -16 18 -75 54 -130 81 -147 72 -177 119 -116 180 59 59 191 29 217 -50
6 -18 17 -37 25 -42 10 -7 8 -9 -10 -7 -14 2 -25 10 -27 20 -2 17 -34 68 -34
55 0 -4 -11 0 -24 8 -37 24 -92 22 -121 -5 -31 -29 -31 -34 3 -69 29 -30 166
-102 185 -97 7 1 8 1 4 -2 -8 -4 42 -52 55 -52 4 0 4 -7 1 -17 -4 -11 -3 -14
5 -9 8 5 12 0 12 -13 0 -11 4 -22 8 -25 5 -3 5 -29 0 -58 -5 -29 -10 -62 -10
-72 -3 -28 -93 -95 -139 -102 -21 -4 -36 -11 -33 -16 4 -6 -2 -5 -14 1 -11 6
-40 9 -63 7 -24 -2 -51 0 -60 4 -8 5 -26 10 -40 12 -31 5 -69 29 -69 45 0 7
-4 13 -9 13 -12 0 -6 86 8 123 6 15 12 27 15 27 18 0 36 -15 36 -32 0 -10 5
-16 10 -13 6 3 10 -1 10 -10 0 -8 7 -18 15 -21 8 -4 15 -12 15 -19 0 -8 5 -17
12 -21 7 -4 8 -3 4 4 -5 8 -2 10 8 6 9 -3 16 -10 16 -15 0 -4 7 -6 15 -3 8 4
15 2 15 -4 0 -6 18 -9 43 -7 33 2 45 9 58 29 9 14 18 24 21 21 2 -3 3 9 0 25
-3 20 -14 36 -31 46 -14 8 -39 23 -56 34 -16 11 -37 22 -45 26 -17 6 -74 34
-101 49 -10 5 -27 26 -38 46 -56 99 4 241 109 261 33 6 161 2 205 -7z m732 2
c17 -1 29 -5 26 -9 -2 -5 3 -8 11 -8 9 0 16 -5 16 -11 0 -8 5 -7 15 1 13 11
14 10 9 -5 -5 -11 -3 -16 2 -12 6 3 30 -10 53 -29 24 -19 41 -34 37 -34 -3 0
1 -12 11 -27 9 -14 18 -31 20 -37 1 -6 7 -37 14 -69 29 -130 -43 -287 -158
-345 -50 -26 -79 -33 -163 -37 -64 -4 -78 -1 -180 43 -60 25 -140 121 -140
167 0 9 -4 14 -9 11 -12 -8 -6 140 8 192 15 52 45 105 55 95 4 -4 5 -1 2 7 -4
10 7 24 31 40 21 14 41 29 45 35 5 7 8 7 8 0 0 -5 4 -4 9 3 4 7 17 15 27 17
10 2 19 4 19 5 0 1 15 3 33 5 18 1 36 6 40 10 4 4 34 4 67 0 33 -4 74 -8 92
-8z m581 0 c6 -5 17 -5 22 -2 6 3 10 1 10 -4 0 -11 -24 -13 -172 -15 -79 -1
-83 10 -7 19 24 3 44 7 45 8 6 6 91 1 102 -6z m293 -2 c86 -8 69 -15 -35 -15
-74 0 -97 -3 -93 -12 2 -7 9 -14 15 -14 7 -1 17 -2 22 -3 21 -2 8 -37 -42
-112 -29 -43 -56 -78 -60 -79 -10 0 -108 157 -108 174 0 9 9 16 20 16 10 0 24
8 30 18 9 14 10 13 4 -8 -4 -14 -9 -30 -11 -36 -2 -6 3 -18 11 -27 8 -8 12
-17 9 -21 -4 -3 -1 -6 5 -6 7 0 12 -6 12 -14 0 -16 24 -28 43 -21 18 8 51 67
49 90 -1 11 -3 29 -4 40 -2 15 4 21 22 23 14 2 29 8 34 12 5 5 13 7 17 4 5 -2
32 -7 60 -9z m29 -77 c-30 -28 -55 -55 -55 -59 0 -4 -10 -16 -22 -27 -13 -11
-23 -27 -23 -36 0 -9 -4 -16 -10 -16 -5 0 -17 -14 -26 -31 -13 -26 -14 -36 -3
-55 6 -13 15 -21 19 -19 4 2 7 -1 7 -8 0 -16 46 -88 67 -106 9 -7 16 -20 16
-29 0 -8 3 -13 6 -9 4 3 17 -8 29 -26 12 -18 27 -31 34 -29 7 1 10 -2 7 -7 -4
-5 0 -12 6 -14 7 -3 1 -6 -13 -6 -33 -1 -71 28 -100 77 -13 20 -50 74 -81 120
-59 83 -59 83 3 165 85 113 119 147 146 147 13 0 23 5 23 10 0 6 6 10 13 10 6
0 -13 -23 -43 -52z m-432 -7 c16 -20 56 -78 90 -129 62 -92 62 -92 -24 -204
-93 -122 -113 -141 -147 -136 -21 3 -20 4 8 18 16 8 27 17 25 20 -2 3 12 22
33 43 20 21 37 43 37 47 0 5 14 22 31 38 40 37 50 97 21 128 -11 11 -27 34
-35 51 -9 16 -23 35 -31 42 -9 7 -14 17 -11 20 6 11 -63 81 -80 81 -8 0 -12 6
-9 13 9 25 62 7 92 -32z m302 -457 c0 -7 -11 -15 -25 -18 -53 -13 -20 -21 92
-21 67 0 121 4 125 10 5 6 8 5 8 -2 0 -25 -63 -41 -153 -39 -96 2 -111 11
-102 56 4 18 -4 40 -27 75 -18 28 -36 53 -41 56 -13 9 -64 -42 -81 -81 -10
-25 -11 -40 -4 -54 8 -15 6 -22 -12 -36 -26 -20 -127 -24 -149 -7 -12 9 -13 9
-7 0 4 -7 3 -13 -1 -13 -5 0 -13 8 -19 18 -10 16 -4 17 87 17 98 -1 122 7 74
25 -14 5 -25 14 -25 18 0 5 18 36 41 68 22 33 52 76 66 96 26 38 26 38 89 -60
35 -53 64 -102 64 -108z m-1294 -127 c12 -12 26 -8 18 6 -6 10 -4 10 7 0 7 -7
23 -13 36 -13 18 0 23 -5 22 -22 -1 -17 -2 -19 -6 -5 -4 14 -17 17 -81 17 -65
1 -74 3 -60 14 18 13 52 15 64 3z m1389 1 c6 -3 25 -4 42 -2 36 4 59 -21 42
-47 -7 -11 -9 -8 -9 11 0 25 -1 25 -77 23 -43 -1 -72 0 -65 3 6 3 10 9 8 13
-6 8 45 8 59 -1z m-1795 -9 c0 -5 -30 -9 -67 -9 -38 0 -63 4 -56 8 16 10 123
11 123 1z m160 1 c0 -5 -12 -10 -26 -10 -14 0 -23 4 -19 10 3 6 15 10 26 10
10 0 19 -4 19 -10z m513 -2 c-2 -5 -14 -8 -27 -8 -38 0 -78 -52 -83 -107 -4
-42 -1 -53 21 -80 35 -41 86 -59 128 -44 45 16 68 40 68 71 0 16 7 30 15 33
11 5 12 1 4 -20 -5 -15 -8 -31 -6 -38 11 -28 -47 -67 -103 -69 -34 -2 -60 5
-107 27 -39 18 -61 112 -37 158 8 16 13 31 12 33 -2 2 7 15 19 28 16 17 33 23
61 23 22 0 38 -3 35 -7z m94 -8 c19 -23 15 -35 -5 -17 -10 10 -28 17 -40 17
-12 0 -22 4 -22 8 0 14 55 7 67 -8z m593 9 c0 -5 -9 -9 -20 -9 -11 0 -20 4
-20 8 0 4 9 8 20 9 11 1 20 -2 20 -8z m272 -8 c19 -16 24 -27 20 -51 -6 -43
-19 -46 -52 -15 -22 21 -35 26 -55 21 -14 -4 -23 -11 -20 -16 4 -6 -1 -17 -9
-25 -12 -13 -13 -21 -3 -48 25 -66 31 -72 67 -57 17 7 36 23 40 34 8 19 9 20
9 2 2 -55 -80 -76 -124 -31 -20 19 -25 34 -25 73 0 63 25 92 81 92 34 0 42 -5
59 -32 20 -33 20 -33 20 1 0 47 -19 58 -91 51 -84 -8 -114 -39 -113 -115 0
-61 15 -84 71 -110 64 -31 131 -2 144 62 7 38 7 38 6 -7 -2 -39 -6 -47 -37
-68 -47 -32 -118 -25 -169 16 -30 24 -37 38 -42 77 -3 28 0 56 7 70 7 13 10
26 8 28 -3 3 6 14 20 25 14 10 23 21 21 24 -3 3 23 6 57 7 35 1 65 4 67 7 8 8
18 4 43 -15z m-692 -18 c-19 -61 -80 -189 -97 -200 -15 -11 -12 -13 21 -13 33
0 37 -2 26 -15 -9 -11 -17 -12 -31 -4 -10 5 -19 6 -19 2 0 -4 -4 -2 -9 6 -7
10 -3 23 10 39 10 13 16 28 14 32 -3 5 -1 11 5 15 6 4 8 11 5 16 -4 5 -1 9 4
9 6 0 11 7 11 15 0 8 4 23 9 33 5 9 15 31 22 47 12 25 27 44 36 45 1 0 -2 -12
-7 -27z m40 13 c0 -8 5 -16 12 -18 6 -2 12 -11 14 -19 5 -30 24 -69 34 -69 5
0 10 -8 10 -18 0 -10 9 -35 20 -57 11 -21 18 -41 15 -43 -3 -3 -5 0 -5 6 0 7
-6 12 -14 12 -8 0 -19 12 -24 28 -6 15 -26 64 -46 110 -19 45 -31 82 -26 82 6
0 10 -6 10 -14z m217 -6 c10 -11 23 -20 30 -20 7 0 21 -12 30 -27 18 -27 18
-27 23 17 3 27 11 45 20 47 13 4 13 3 0 -6 -10 -8 -12 -13 -4 -18 6 -5 14 -39
17 -78 6 -70 6 -70 -74 13 -44 45 -82 82 -84 82 -3 0 -5 -47 -5 -105 0 -96 -2
-105 -21 -116 -17 -9 -20 -8 -13 2 4 7 9 58 10 112 2 99 8 116 42 117 7 0 20
-9 29 -20z m180 -8 c-11 -13 -15 -42 -15 -110 0 -51 -2 -96 -6 -99 -3 -4 -6
42 -6 101 0 85 3 108 15 112 8 4 12 11 8 17 -4 6 -1 7 6 3 9 -6 9 -12 -2 -24z
m-1194 -47 c-3 -35 -2 -76 1 -90 7 -27 34 -33 54 -13 9 9 12 8 12 -5 0 -20
-30 -37 -64 -37 -26 0 -26 0 -26 93 0 59 4 97 12 105 7 7 13 12 14 12 1 0 -1
-29 -3 -65z m167 -44 c0 -65 -4 -89 -17 -103 -15 -17 -13 -18 65 -18 67 0 83
3 91 18 9 15 10 15 11 1 0 -28 -23 -38 -91 -41 -70 -2 -83 2 -100 34 -8 15 -8
19 0 14 6 -4 11 -1 12 6 2 45 -3 172 -8 185 -5 13 -3 13 16 2 19 -12 21 -23
21 -98z m1390 -8 c0 -77 -3 -94 -17 -102 -13 -8 4 -10 65 -11 79 0 83 1 92 25
11 29 20 33 20 8 -1 -37 -24 -51 -95 -57 -39 -4 -76 -2 -84 3 -10 7 -14 39
-15 128 -1 112 0 119 17 109 14 -9 17 -26 17 -103z m-1876 101 c25 -9 23 -189
-1 -203 -13 -8 5 -10 68 -11 81 0 87 1 92 22 4 12 9 20 12 16 3 -3 0 -17 -6
-32 -11 -23 -19 -26 -63 -28 -99 -2 -136 8 -119 35 10 16 12 159 2 183 -9 26
-8 27 15 18z m245 -8 c17 -21 9 -172 -10 -191 -15 -16 -16 5 -6 157 1 21 -2
40 -8 42 -6 3 -6 5 1 5 6 1 17 -5 23 -13z m-111 -19 c3 -15 0 -18 -17 -12 -16
5 -20 3 -15 -9 3 -9 10 -13 15 -10 5 3 6 -2 3 -10 -4 -10 -18 -16 -35 -16 -27
0 -29 2 -29 41 0 40 0 40 37 37 27 -2 39 -8 41 -21z m474 -6 c7 -21 7 -22 -8
-10 -13 11 -15 11 -14 -2 5 -31 -1 -39 -30 -39 -28 0 -30 2 -30 41 0 40 0 40
36 37 28 -2 39 -9 46 -27z m275 -3 c17 -33 17 -33 24 -8 6 22 7 23 8 4 1 -12
-6 -27 -14 -34 -10 -8 -15 -9 -15 -2 0 30 -49 53 -90 43 -4 0 -12 -17 -19 -36
-9 -26 -9 -39 -1 -56 10 -17 9 -20 -2 -13 -11 6 -11 5 1 -9 7 -9 17 -15 21
-12 5 3 10 -1 13 -7 7 -22 39 13 34 38 -3 17 0 20 15 16 21 -5 25 -51 6 -70
-21 -21 -72 -14 -97 12 -28 29 -31 104 -7 141 13 20 25 25 61 25 40 0 46 -3
62 -32z m1103 12 c0 -12 -5 -17 -14 -14 -8 3 -17 1 -21 -5 -3 -6 0 -9 7 -6 8
3 14 -2 15 -14 1 -14 -6 -20 -28 -23 -28 -4 -29 -3 -29 39 0 43 0 43 35 43 28
0 35 -4 35 -20z m-885 -56 c19 -46 20 -44 -15 -44 -16 0 -30 3 -30 7 0 9 23
73 27 73 1 0 10 -16 18 -36z m299 -58 c78 -86 90 -104 57 -87 -10 6 -22 7 -26
3 -3 -4 -5 -2 -3 3 2 6 -1 12 -7 14 -5 3 -24 20 -41 39 -36 40 -57 37 -44 -7
6 -23 5 -29 -5 -25 -14 6 -27 144 -14 144 4 0 41 -38 83 -84z m-792 32 c-9 -9
-12 -7 -12 12 0 19 3 21 12 12 9 -9 9 -15 0 -24z m-471 -70 c-8 -11 -28 -18
-48 -18 -33 0 -33 1 -33 45 0 36 3 45 18 45 25 0 38 -12 47 -40 7 -24 7 -24
-8 -5 -16 20 -16 20 -10 -3 9 -36 28 -20 32 29 5 44 5 44 11 4 4 -28 1 -45 -9
-57z m773 80 c-15 -7 -28 -7 -40 0 -14 8 -10 10 22 10 33 0 36 -2 18 -10z
m-322 -31 c4 -7 8 -7 8 -2 0 6 5 2 11 -7 17 -30 -6 -58 -46 -58 -35 0 -35 0
-35 46 0 45 1 46 27 39 15 -3 31 -12 35 -18z m1390 0 c4 -6 3 -16 -2 -23 -17
-19 3 -25 24 -7 20 18 20 18 5 -7 -12 -18 -27 -26 -53 -28 -36 -3 -36 -3 -36
43 0 46 0 47 27 40 15 -3 31 -12 35 -18z m25 1 c-3 -8 -6 -5 -6 6 -1 11 2 17
5 13 3 -3 4 -12 1 -19z m-875 -32 c5 -10 8 -26 5 -37 -4 -16 0 -19 36 -19 30
0 38 -3 30 -11 -6 -6 -25 -13 -41 -15 -27 -3 -36 4 -41 29 0 4 -11 17 -23 29
-21 21 -21 21 -39 -1 -21 -26 -33 -13 -20 23 9 21 16 25 46 23 23 -2 41 -9 47
-21z m233 4 c3 -6 -1 -7 -9 -4 -18 7 -21 14 -7 14 6 0 13 -4 16 -10z m-964
-60 c-24 -20 -40 -25 -83 -25 -29 1 -59 5 -67 9 -10 6 -12 5 -7 -2 4 -7 3 -12
-3 -12 -17 0 -21 18 -5 24 9 3 49 6 90 6 65 0 74 2 74 18 0 25 12 35 22 20 5
-9 -2 -22 -21 -38z m924 -10 c-28 -12 -67 -12 -60 0 3 6 23 10 43 9 30 0 33
-2 17 -9z"/>
<path d="M2552 3571 c-21 -13 -11 -55 14 -59 30 -4 48 21 34 47 -11 22 -27 26
-48 12z"/>
<path d="M1945 3101 c3 -5 -5 -13 -17 -17 -23 -7 -77 -44 -64 -44 4 0 -1 -12
-11 -27 -16 -25 -16 -27 -1 -15 10 8 20 22 23 31 3 10 23 28 45 40 22 12 38
27 35 32 -4 5 -8 9 -11 9 -3 0 -3 -4 1 -9z"/>
<path d="M1815 2979 c-4 -6 -5 -12 -2 -15 2 -3 7 2 10 11 7 17 1 20 -8 4z"/>
<path d="M1772 2927 c-25 -27 -28 -37 -9 -37 7 0 21 14 30 30 21 36 9 39 -21
7z"/>
<path d="M1702 2818 c-48 -93 -74 -175 -92 -283 -12 -73 -12 -75 -2 -75 5 0
14 30 20 68 6 37 15 85 20 107 10 45 71 178 84 183 5 2 3 11 -4 20 -8 9 -8 13
-2 9 7 -4 15 0 18 9 8 21 8 24 -2 24 -5 0 -23 -28 -40 -62z"/>
<path d="M1393 2384 c-8 -22 10 -49 32 -49 10 0 22 7 28 16 15 24 1 49 -28 49
-15 0 -28 -7 -32 -16z"/>
<path d="M3691 2381 c-8 -15 -7 -23 5 -35 26 -27 58 -12 52 25 -4 31 -42 38
-57 10z"/>
<path d="M3484 2375 c-4 -9 -2 -21 4 -27 15 -15 44 -1 40 19 -4 23 -36 29 -44
8z"/>
<path d="M3620 2343 c0 -7 9 -13 20 -13 11 0 20 6 20 13 0 7 -9 13 -20 13 -11
0 -20 -6 -20 -13z"/>
<path d="M1448 2303 c-26 -30 -31 -62 -14 -88 20 -30 61 -33 75 -6 14 25 2 35
-19 16 -15 -14 -18 -14 -30 0 -19 23 2 65 33 65 36 0 54 -28 70 -110 26 -126
36 -158 81 -253 141 -300 425 -517 749 -571 57 -10 74 -17 90 -38 19 -25 19
-28 3 -52 -9 -14 -25 -26 -37 -26 -27 0 -36 28 -13 45 18 12 18 14 2 20 -25
10 -38 -2 -38 -35 0 -40 36 -65 74 -50 34 12 50 49 42 93 -8 41 -17 45 -156
77 -192 43 -336 120 -478 254 -85 80 -135 143 -125 159 3 5 2 7 -4 4 -21 -13
-149 248 -140 285 3 10 2 16 -3 13 -4 -2 -12 27 -19 66 -13 80 -32 124 -60
139 -30 15 -66 12 -83 -7z"/>
<path d="M3596 2295 c-16 -16 -28 -44 -35 -82 -43 -228 -119 -379 -283 -558
-33 -36 -47 -29 -17 10 22 27 22 27 1 14 -12 -8 -22 -20 -22 -27 0 -7 -4 -11
-9 -7 -5 3 -13 1 -16 -5 -4 -6 -2 -9 3 -8 6 2 10 -1 10 -7 0 -5 -4 -9 -10 -7
-5 1 -7 -2 -4 -6 8 -14 -31 -45 -45 -36 -7 4 -10 3 -6 -4 8 -12 -99 -82 -192
-124 -64 -29 -235 -77 -276 -78 -56 0 -92 -74 -60 -123 40 -62 140 -22 105 43
-6 11 -17 20 -25 20 -18 0 -20 -27 -3 -32 18 -6 1 -38 -21 -38 -25 0 -50 35
-44 61 8 29 40 46 102 53 74 10 223 60 301 103 202 110 359 275 454 478 37 77
57 141 80 254 17 82 28 101 60 101 28 0 46 -18 46 -46 0 -33 -19 -39 -41 -15
-24 26 -30 27 -22 4 17 -48 52 -57 77 -21 22 32 20 55 -9 83 -31 32 -67 32
-99 0z"/>
<path d="M1496 2262 c-3 -5 1 -9 9 -9 8 0 12 4 9 9 -3 4 -7 8 -9 8 -2 0 -6 -4
-9 -8z"/>
<path d="M3523 2248 c0 -68 -49 -232 -95 -321 -5 -11 -7 -21 -4 -24 3 -3 -3
-13 -14 -22 -11 -9 -20 -23 -22 -31 -2 -8 -16 -27 -32 -42 -16 -16 -26 -31
-23 -35 4 -3 7 -1 7 5 0 7 5 12 11 12 5 0 7 -5 3 -12 -4 -7 -3 -8 5 -4 6 4 9
11 6 16 -3 4 -2 10 3 12 14 6 72 92 72 107 0 8 8 23 18 34 9 11 11 17 5 13 -7
-4 -13 -2 -13 3 0 6 5 11 11 11 5 0 7 5 4 10 -3 6 -2 10 3 10 21 0 82 244 65
261 -6 6 -10 5 -10 -3z"/>
<path d="M1704 1918 c12 -20 12 -28 3 -31 -9 -4 -9 -6 1 -6 6 -1 12 -7 12 -14
0 -8 10 -22 22 -33 22 -19 22 -19 5 6 -9 13 -17 31 -17 40 0 8 -10 26 -21 40
-21 25 -21 25 -5 -2z"/>
<path d="M3487 1859 c-3 -11 0 -16 8 -12 19 7 26 30 10 30 -8 0 -16 -8 -18
-18z"/>
<path d="M3444 1784 c-4 -10 -16 -30 -28 -43 -21 -24 -21 -24 2 -12 22 12 48
59 38 69 -3 3 -9 -4 -12 -14z"/>
<path d="M1720 1721 c0 -6 4 -12 8 -15 5 -3 9 1 9 9 0 8 -4 15 -9 15 -4 0 -8
-4 -8 -9z"/>
<path d="M3331 1611 c-19 -12 -6 -41 18 -41 26 0 36 17 21 35 -14 17 -20 18
-39 6z"/>
<path d="M2032 1546 c7 -8 15 -12 17 -11 5 6 -10 25 -20 25 -5 0 -4 -6 3 -14z"/>
<path d="M3240 1550 c-9 -6 -10 -10 -3 -10 6 0 15 5 18 10 8 12 4 12 -15 0z"/>
<path d="M2458 1282 c-3 -11 0 -19 7 -19 7 0 10 8 7 19 -2 10 -6 18 -7 18 -1
0 -5 -8 -7 -18z"/>
<path d="M2670 1276 c0 -2 7 -7 16 -10 8 -3 12 -2 9 4 -6 10 -25 14 -25 6z"/>
<path d="M2544 1236 c-11 -28 1 -51 25 -51 32 0 49 28 32 49 -17 20 -50 21
-57 2z"/>
<path d="M3238 3166 c12 -6 19 -16 15 -21 -4 -4 -3 -5 4 -1 18 10 6 32 -20 33
-22 2 -22 2 1 -11z"/>
<path d="M1590 2770 c0 -21 -1 -26 -16 -47 -8 -13 -11 -23 -6 -23 9 0 33 44
38 68 1 6 -2 12 -7 12 -5 0 -9 -4 -9 -10z"/>
<path d="M2097 2926 c-107 -30 -183 -116 -194 -219 -13 -126 38 -200 217 -312
233 -146 290 -200 298 -285 2 -27 8 -50 13 -50 5 0 9 6 9 13 0 6 20 53 44 102
44 90 44 90 19 123 -35 47 -105 99 -241 182 -190 115 -242 169 -242 250 0 62
54 127 126 150 50 17 136 7 193 -22 36 -18 52 -35 74 -78 15 -29 27 -64 27
-77 0 -15 6 -23 16 -23 15 0 16 9 11 68 -4 37 -7 90 -7 118 0 52 0 52 -62 58
-152 15 -254 16 -301 2z"/>
<path d="M2395 1056 c-75 -31 -147 -106 -166 -174 -34 -119 0 -247 84 -316 48
-39 148 -76 206 -76 63 0 163 36 208 75 154 131 121 395 -59 480 -26 12 -46
24 -44 26 3 2 -35 5 -82 7 -73 2 -96 -2 -147 -22z m204 -31 c44 -22 97 -90
112 -142 34 -123 -2 -267 -80 -318 -106 -71 -250 -20 -298 103 -21 56 -23 178
-4 235 16 48 66 106 106 123 41 18 129 17 164 -1z"/>
<path d="M2460 1000 c0 -5 -8 -10 -18 -10 -18 0 -62 -49 -62 -69 0 -5 -5 -11
-11 -13 -25 -8 -28 -178 -3 -215 11 -18 12 -23 3 -18 -8 5 -5 -1 5 -13 11 -12
15 -22 10 -22 -5 0 2 -7 14 -16 12 -8 20 -20 17 -25 -3 -5 2 -6 11 -2 11 4 15
2 11 -4 -6 -10 13 -24 38 -28 6 0 18 -5 28 -9 22 -10 90 2 82 14 -3 6 0 7 8 4
8 -3 17 2 20 10 4 9 13 16 21 16 8 0 17 13 21 30 4 17 10 30 14 30 17 0 31
114 21 173 -9 56 -36 117 -52 117 -4 0 -8 6 -8 13 0 21 -66 47 -120 47 -28 0
-50 -4 -50 -10z"/>
<path d="M2289 393 c-13 -16 -12 -17 4 -4 16 13 21 21 13 21 -2 0 -10 -8 -17
-17z"/>
<path d="M2114 339 c-7 -12 15 -31 28 -23 9 6 -1 34 -12 34 -5 0 -12 -5 -16
-11z"/>
<path d="M2130 235 c0 -7 30 -13 34 -7 3 4 -4 9 -15 9 -10 1 -19 0 -19 -2z"/>
</g>
</svg>
