<?xml version="1.0" standalone="no"?>
<!DOCTYPE svg PUBLIC "-//W3C//DTD SVG 20010904//EN"
 "http://www.w3.org/TR/2001/REC-SVG-20010904/DTD/svg10.dtd">
<svg version="1.0" xmlns="http://www.w3.org/2000/svg"
 width="448.000000pt" height="451.000000pt" viewBox="0 0 448.000000 451.000000"
 preserveAspectRatio="xMidYMid meet">
<g transform="translate(0.000000,451.000000) scale(0.100000,-0.100000)"
fill="#000000" stroke="none">
<path d="M2355 3159 c-108 -8 -202 -22 -305 -45 -70 -16 -88 -20 -135 -29 -46
-9 -99 -26 -112 -38 -7 -5 -13 -7 -13 -3 0 4 -33 -10 -72 -31 -127 -65 -198
-136 -198 -199 0 -30 32 -88 50 -90 5 -1 15 -2 21 -3 5 0 7 -6 3 -13 -4 -6 -3
-8 4 -4 6 3 17 -1 26 -10 9 -8 20 -12 26 -9 5 3 10 2 10 -3 0 -5 26 -14 58
-20 31 -7 84 -17 117 -24 33 -6 70 -11 82 -11 12 0 20 -4 17 -9 -3 -4 -10 -6
-15 -3 -5 4 -19 -1 -31 -9 -12 -9 -33 -16 -45 -16 -13 0 -23 -4 -23 -8 0 -4
-8 -8 -17 -9 -10 0 -72 -17 -138 -37 -66 -20 -126 -37 -132 -38 -7 -1 -13 -5
-13 -9 0 -4 -10 -5 -22 -1 -14 3 -19 1 -14 -6 5 -8 2 -10 -9 -6 -8 4 -21 1
-28 -5 -8 -6 -24 -13 -38 -15 -13 -3 -24 -5 -24 -6 0 -1 -11 -4 -25 -6 -14 -3
-26 -9 -28 -14 -2 -6 -12 -10 -21 -10 -10 0 -32 -7 -49 -15 -17 -9 -39 -18
-49 -20 -28 -5 -132 -55 -138 -66 -4 -5 -9 -7 -13 -5 -4 2 -15 -6 -24 -19 -17
-22 -17 -24 6 -38 22 -15 69 -11 126 10 8 4 18 6 21 5 4 -1 22 3 40 9 19 6 52
12 74 14 22 2 78 10 125 19 144 27 392 59 443 58 34 -1 46 1 41 10 -4 6 -3 9
2 6 9 -6 262 26 301 38 13 3 20 11 17 18 -3 6 2 2 11 -9 l17 -20 -6 20 c-4 14
3 26 22 40 24 17 25 17 12 1 -8 -10 -16 -27 -17 -39 -3 -19 0 -18 27 8 38 37
120 197 119 234 0 21 -26 48 -131 136 -149 126 -150 116 21 129 l90 7 74 -61
75 -61 79 45 c43 25 121 65 173 90 122 57 479 188 493 179 5 -3 -11 -14 -37
-24 -128 -51 -571 -371 -571 -413 0 -6 70 -73 156 -151 86 -77 155 -141 154
-143 -1 -1 -67 5 -146 14 l-144 16 -77 69 c-42 38 -82 69 -88 69 -7 0 -29 -13
-49 -28 -20 -16 -73 -52 -118 -81 -46 -29 -83 -57 -83 -63 0 -5 -4 -6 -10 -3
-5 3 -10 2 -10 -3 0 -6 7 -13 16 -16 23 -9 24 -8 17 11 -4 10 -2 14 4 10 13
-8 103 40 103 56 0 5 3 8 6 4 3 -3 14 2 25 11 11 9 37 26 59 38 22 12 36 25
32 29 -10 11 18 -5 37 -22 9 -8 40 -36 69 -63 57 -51 86 -60 209 -65 29 -1 56
-4 59 -8 4 -4 27 -7 50 -7 55 0 76 28 44 60 -11 11 -17 20 -14 20 4 0 -16 18
-45 41 -28 22 -51 45 -51 50 0 6 -3 9 -7 7 -5 -2 -43 31 -86 73 l-77 76 55 50
c30 28 55 48 55 45 0 -3 8 5 19 16 10 12 33 28 52 36 19 9 28 15 20 16 -22 0
19 29 42 30 10 0 15 4 12 10 -3 5 6 12 20 16 14 3 29 11 33 18 9 14 88 66 101
66 5 0 14 7 21 15 7 9 19 14 27 11 8 -3 11 -1 8 4 -3 6 2 13 12 17 10 4 24 13
31 20 7 7 19 13 26 13 7 0 22 9 34 20 22 21 21 45 -3 54 -14 5 -106 -17 -140
-33 -11 -5 -55 -21 -97 -35 -43 -14 -88 -31 -100 -38 -13 -6 -27 -13 -33 -13
-11 -1 -32 -10 -117 -49 -31 -14 -62 -26 -68 -26 -6 0 -9 -4 -6 -9 6 -10 -24
-25 -32 -16 -3 3 1 5 8 5 7 0 11 3 7 6 -3 4 -23 -7 -44 -23 -21 -17 -47 -35
-58 -40 -23 -12 -85 -15 -85 -4 0 9 -93 76 -102 73 -5 -1 -8 2 -8 6 0 12 -96
14 -152 4 -27 -5 -48 -6 -48 -2 0 7 56 22 64 17 1 -1 10 3 18 10 8 7 34 15 58
18 24 3 60 10 80 15 54 14 239 50 295 56 28 3 55 10 61 15 6 5 13 7 16 4 3 -3
11 2 18 10 11 13 10 19 -4 33 -14 15 -41 17 -189 18 -95 0 -217 -3 -272 -7z
m465 -30 c0 -5 -21 -9 -47 -9 -171 0 -680 -129 -810 -206 -50 -29 -56 -38 -48
-64 10 -32 70 -64 195 -104 178 -57 221 -91 201 -161 -13 -46 -54 -101 -91
-120 -35 -18 -166 -39 -415 -66 -206 -22 -554 -78 -677 -109 -97 -25 -104 -25
-47 5 118 61 298 124 719 250 257 77 238 70 213 83 -11 6 -81 23 -155 37 -260
51 -325 87 -304 170 24 97 234 199 522 255 136 26 279 39 519 46 110 4 202 8
204 10 6 5 21 -6 21 -17z m-660 -184 c-11 -12 -20 -25 -20 -30 0 -4 18 -25 40
-46 22 -21 40 -36 40 -33 0 2 13 -9 30 -26 16 -16 32 -30 36 -30 3 0 15 -11
26 -25 11 -14 26 -25 33 -25 9 0 12 -6 8 -17 -4 -11 -3 -14 5 -9 7 4 15 1 18
-8 3 -9 10 -14 14 -11 9 5 -22 -80 -32 -91 -4 -3 -12 13 -19 36 -7 23 -19 44
-26 47 -7 3 -11 8 -8 13 5 9 -81 51 -155 75 -30 10 -71 24 -90 32 -20 8 -43
15 -51 16 -8 2 -28 13 -44 25 -27 22 -28 23 -9 37 26 20 120 65 136 65 7 1 24
7 36 14 39 21 56 16 32 -9z"/>
<path d="M2047 2659 c7 -7 15 -10 18 -7 3 3 -2 9 -12 12 -14 6 -15 5 -6 -5z"/>
<path d="M1300 2169 c-25 -4 -54 -9 -65 -11 -11 -2 -33 -16 -49 -32 -25 -25
-28 -34 -23 -69 3 -23 13 -46 21 -52 13 -10 12 -16 -10 -49 -23 -34 -24 -39
-11 -60 20 -30 78 -46 180 -48 68 -1 91 2 113 17 45 29 64 55 64 89 0 34 -32
90 -45 79 -4 -5 0 6 9 24 9 18 16 39 16 48 0 15 -33 49 -50 51 -6 1 -11 3 -12
4 -2 1 -14 3 -28 5 -14 1 -34 4 -45 7 -11 3 -40 2 -65 -3z m141 -41 c43 -12
45 -16 27 -41 -12 -15 -17 -15 -53 -2 -70 25 -165 14 -165 -19 0 -15 40 -26
104 -27 22 0 59 -6 81 -13 75 -22 82 -102 10 -131 -62 -26 -252 -12 -261 20
-2 6 3 18 10 28 12 15 16 16 41 3 70 -36 195 -27 195 15 0 10 -1 19 -2 19 -81
6 -184 22 -205 32 -22 10 -29 21 -31 50 -3 33 1 40 30 58 38 23 155 28 219 8z"/>
<path d="M1730 2172 c-43 -3 -90 -21 -90 -34 0 -5 -4 -7 -10 -3 -5 3 -17 -7
-27 -22 -10 -15 -21 -31 -25 -34 -5 -3 -10 -28 -12 -55 -5 -55 10 -92 48 -122
14 -11 22 -23 18 -27 -4 -3 -2 -5 3 -4 6 2 20 -2 31 -9 36 -20 100 -25 153
-12 28 7 51 16 51 21 0 5 3 8 8 7 11 -4 52 34 67 63 18 35 21 87 6 124 -13 31
-80 99 -89 90 -3 -3 -10 -1 -16 4 -14 11 -69 17 -116 13z m137 -52 c44 -26 66
-63 66 -111 0 -78 -65 -129 -166 -129 -71 0 -115 17 -150 59 -49 59 -27 149
44 184 49 24 164 23 206 -3z"/>
<path d="M1700 2083 c-69 -36 -67 -108 4 -143 108 -52 215 42 143 125 -30 36
-97 44 -147 18z m129 -43 c13 -20 24 -66 13 -55 -2 2 -11 -2 -19 -10 -21 -21
-96 -19 -123 3 -28 23 -22 61 12 79 35 18 100 8 117 -17z"/>
<path d="M2030 2152 c-11 -12 -15 -46 -17 -137 -2 -140 7 -165 60 -165 41 0
67 26 67 68 0 24 73 24 78 -1 2 -9 11 -17 19 -17 9 0 13 -3 10 -6 -14 -14 37
-44 73 -44 29 0 41 6 54 25 16 25 16 26 -20 61 -21 19 -30 32 -22 29 28 -11
56 61 44 110 -8 32 -37 61 -78 78 -54 22 -247 22 -268 -1z m296 -45 c14 -16
24 -41 24 -58 0 -31 -30 -69 -55 -69 -26 0 -17 -16 33 -59 l47 -40 -42 -1
c-38 0 -47 5 -84 45 -39 43 -44 45 -96 45 l-54 0 7 -46 6 -45 -33 3 -34 3 -3
128 -3 129 132 -4 c129 -3 131 -3 155 -31z"/>
<path d="M2100 2050 l0 -40 68 0 c84 0 110 7 117 32 12 37 -11 48 -101 48
l-84 0 0 -40z m142 2 c9 -9 -1 -12 -45 -12 -43 0 -57 4 -57 14 0 18 84 16 102
-2z"/>
<path d="M2458 2157 c-13 -11 -16 -34 -18 -132 -3 -147 -3 -140 16 -159 12
-13 41 -16 154 -16 l139 0 15 28 c13 26 13 31 -3 55 -10 15 -21 24 -24 20 -10
-10 -8 3 5 32 8 18 8 31 0 49 -8 19 -7 26 9 39 24 21 24 59 1 80 -15 14 -41
17 -148 17 -88 -1 -134 -5 -146 -13z m287 -44 c2 -23 0 -23 -110 -23 l-111 0
1 -26 2 -27 96 2 97 2 0 -25 0 -26 -97 0 -98 0 0 -30 0 -30 113 0 112 0 0 -25
0 -25 -146 0 c-129 0 -145 2 -140 16 3 9 6 67 6 130 l0 115 137 -3 c133 -3
136 -3 138 -25z"/>
<path d="M2845 2150 c-16 -18 -15 -21 39 -76 55 -56 56 -57 39 -78 -33 -38
-42 -46 -49 -46 -4 0 -17 -12 -30 -27 -21 -24 -21 -28 -7 -50 23 -34 79 -32
126 6 20 15 34 31 30 35 -3 3 -1 6 5 6 5 0 17 2 24 5 8 3 34 -12 58 -35 37
-33 52 -40 87 -40 32 0 45 5 53 19 15 29 13 33 -30 79 -22 22 -40 39 -40 37 0
-3 -8 3 -18 13 -17 16 -15 19 35 68 57 56 61 65 37 88 -20 21 -92 18 -104 -3
-5 -9 -10 -13 -10 -9 0 4 -11 -4 -25 -17 -32 -33 -48 -31 -83 6 -37 40 -109
50 -137 19z m136 -56 l46 -46 49 46 c42 39 55 46 89 45 l40 0 -69 -62 -68 -63
70 -60 c39 -32 71 -62 71 -66 1 -5 -16 -8 -36 -8 -32 0 -47 9 -92 51 l-54 50
-51 -50 c-43 -43 -58 -51 -89 -51 -20 0 -37 3 -37 8 0 4 32 34 71 67 70 59 70
60 49 77 -11 9 -44 37 -71 62 l-51 46 43 0 c38 0 49 -6 90 -46z"/>
<path d="M1404 1762 c8 -13 -36 -24 -48 -12 -15 15 -39 11 -63 -9 -33 -28 -32
-95 1 -116 24 -16 76 -12 76 5 0 4 7 10 15 14 8 3 14 0 12 -7 -1 -6 9 -13 23
-15 24 -4 24 -3 7 15 -9 11 -17 32 -17 46 0 17 -5 27 -15 27 -8 0 -15 5 -15
10 0 6 18 10 40 10 22 0 40 -4 40 -10 0 -5 -7 -10 -15 -10 -25 0 -20 -66 5
-73 16 -4 18 -2 11 11 -5 10 -5 26 -1 37 7 19 7 19 19 -3 7 -12 9 -27 6 -32
-3 -5 4 -14 17 -21 16 -9 23 -9 26 0 2 6 10 11 18 11 9 0 12 5 9 13 -4 6 2 1
13 -12 17 -22 29 -25 92 -27 88 -3 108 11 104 74 -2 59 -30 81 -78 62 -15 -5
-27 -20 -31 -39 -4 -17 -11 -31 -17 -31 -6 0 -9 3 -5 6 3 4 0 19 -9 35 -13 27
-18 28 -62 25 -26 -2 -55 0 -64 5 -12 7 -18 6 -18 -2 0 -8 -4 -9 -13 0 -8 6
-16 8 -20 5 -3 -3 -15 0 -27 6 -12 7 -20 8 -16 2z m-47 -48 c2 -7 -6 -10 -24
-7 -27 4 -27 3 5 -11 17 -8 32 -20 32 -25 0 -16 -35 -31 -58 -24 -34 8 -26 23
8 17 19 -4 30 -2 30 5 0 6 -11 11 -25 11 -29 0 -45 27 -24 41 18 12 51 7 56
-7z m152 -1 c10 -17 12 -17 25 0 7 9 19 17 26 17 9 0 6 -8 -8 -23 -12 -13 -22
-30 -22 -39 0 -9 -6 -18 -13 -21 -10 -4 -13 1 -10 17 3 13 -2 28 -11 35 -9 8
-16 17 -16 22 0 15 19 10 29 -8z m122 -53 c17 0 28 -4 25 -8 -3 -5 -15 -8 -28
-6 -13 1 -26 3 -30 3 -5 1 -7 20 -6 44 l1 42 4 -37 c4 -35 7 -38 34 -38z m119
60 c0 -5 -15 -11 -32 -11 -31 -2 -31 -2 -5 -6 34 -5 36 -23 2 -23 -14 0 -25
-4 -25 -10 0 -5 14 -10 31 -10 16 0 28 -4 25 -8 -2 -4 -17 -7 -33 -7 -26 2
-28 5 -31 43 -3 42 -3 42 32 42 20 0 36 -4 36 -10z"/>
<path d="M1823 1733 c-27 -40 -25 -91 4 -110 42 -28 103 2 98 48 -4 35 -3 34
-30 63 -31 33 -50 33 -72 -1z m60 -31 c-2 -13 1 -21 6 -18 5 3 11 -3 14 -14 3
-13 0 -20 -8 -20 -7 0 -19 -2 -27 -5 -7 -3 -22 1 -33 9 -15 11 -17 17 -7 28 6
8 9 18 6 21 -12 11 8 28 29 25 16 -2 21 -9 20 -26z"/>
<path d="M1840 1670 c0 -5 10 -10 23 -10 18 0 19 2 7 10 -19 13 -30 13 -30 0z"/>
<path d="M1981 1740 c-9 -8 -17 -32 -18 -54 -2 -58 35 -87 57 -46 11 20 11 20
48 -5 43 -29 77 -32 91 -7 6 9 11 12 11 5 0 -19 135 -10 158 10 18 16 20 16
46 -8 31 -29 48 -31 70 -10 13 13 19 14 36 3 17 -11 22 -11 29 1 5 8 11 9 15
3 8 -14 80 -9 99 6 12 10 16 10 20 -2 6 -15 87 -21 87 -6 0 5 11 5 25 -2 19
-8 28 -8 42 3 11 10 14 10 9 1 -6 -10 6 -11 54 -8 34 3 73 1 87 -5 19 -7 31
-6 47 4 18 12 23 12 34 1 18 -19 56 -17 74 4 14 16 16 47 4 59 -3 3 -1 13 4
23 19 35 -57 65 -90 35 -15 -14 -18 -14 -30 0 -12 15 -53 12 -76 -6 -6 -5 -16
-3 -22 3 -9 9 -15 9 -24 0 -8 -8 -17 -8 -30 -1 -15 8 -24 7 -39 -7 -15 -14
-20 -14 -24 -3 -8 20 -54 23 -62 3 -5 -13 -9 -12 -28 6 -20 19 -25 20 -36 7
-12 -13 -16 -13 -32 1 -17 15 -19 15 -29 -1 -9 -17 -11 -17 -28 -2 -15 14 -24
15 -60 5 -32 -9 -49 -9 -71 1 -25 10 -32 9 -49 -6 -11 -10 -20 -13 -20 -7 0
19 -57 24 -83 7 -21 -13 -25 -14 -30 -1 -4 11 -14 12 -39 7 -18 -4 -46 -4 -61
0 -34 9 -68 4 -78 -12 -5 -8 -8 -8 -11 2 -6 18 -57 18 -77 -1z m67 -22 c19
-19 14 -37 -12 -44 -14 -3 -27 -12 -30 -21 -11 -27 -22 -5 -18 36 3 34 8 41
26 41 12 0 27 -5 34 -12z m102 2 c0 -5 -12 -11 -27 -11 l-28 -2 28 -4 c34 -5
36 -23 2 -23 -14 0 -25 -4 -25 -10 0 -5 14 -10 32 -10 19 0 28 -4 23 -9 -6 -5
-24 -7 -42 -4 -28 4 -32 9 -31 37 0 17 3 34 5 39 6 11 63 9 63 -3z m100 -5
c10 -12 10 -18 -1 -31 -10 -13 -10 -17 0 -24 9 -5 10 -10 3 -14 -6 -4 -16 3
-22 14 -12 23 -30 27 -30 6 0 -8 -4 -18 -10 -21 -6 -4 -10 12 -10 39 0 44 1
46 29 46 16 0 34 -7 41 -15z m100 5 c0 -5 -11 -10 -25 -10 -14 0 -25 -5 -25
-11 0 -6 8 -8 19 -4 11 3 22 1 26 -5 4 -6 -4 -10 -19 -10 -20 0 -26 -5 -26
-21 0 -11 -4 -17 -10 -14 -5 3 -10 24 -10 46 0 38 1 39 35 39 19 0 35 -4 35
-10z m100 -9 c15 -29 13 -39 -14 -56 -32 -21 -66 -5 -66 30 0 42 61 61 80 26z
m100 4 c9 -11 10 -19 1 -28 -8 -10 -7 -17 1 -25 6 -6 9 -14 6 -18 -4 -3 -15 4
-25 15 -21 25 -33 27 -33 6 0 -8 -4 -15 -10 -15 -11 0 -14 63 -3 73 12 12 50
7 63 -8z m100 -4 l19 24 -1 -45 c0 -39 -1 -41 -7 -15 -6 28 -7 29 -18 10 -10
-17 -13 -17 -29 -5 -16 14 -17 13 -12 -7 4 -13 2 -23 -3 -23 -5 0 -9 19 -9 43
l1 42 19 -24 20 -23 20 23z m120 -22 c22 -42 22 -61 1 -35 -10 11 -19 13 -38
5 -14 -5 -28 -8 -30 -6 -6 7 30 77 39 77 4 0 17 -18 28 -41z m78 16 c11 -14
22 -25 25 -25 2 0 2 11 -1 25 -2 15 0 25 7 25 7 0 11 -19 11 -47 l-1 -48 -29
33 -30 32 0 -30 c0 -18 -4 -29 -10 -25 -13 8 -13 85 -1 85 5 0 18 -11 29 -25z
m150 8 c2 -9 -5 -11 -26 -7 -21 4 -31 2 -35 -9 -8 -21 17 -40 43 -32 11 3 20
2 20 -3 0 -12 -37 -22 -56 -15 -20 8 -29 50 -13 69 14 17 60 15 67 -3z m92 7
c0 -5 -12 -10 -26 -10 -14 0 -23 -4 -19 -10 3 -5 12 -7 20 -3 8 3 15 0 15 -6
0 -6 -9 -11 -20 -11 -11 0 -20 -4 -20 -10 0 -5 13 -10 29 -10 17 0 32 -4 35
-9 4 -5 -2 -8 -11 -6 -10 2 -28 4 -40 4 -20 1 -23 6 -23 41 0 38 2 40 30 40
17 0 30 -4 30 -10z"/>
<path d="M2000 1700 c0 -5 9 -10 20 -10 11 0 20 5 20 10 0 6 -9 10 -20 10 -11
0 -20 -4 -20 -10z"/>
<path d="M2200 1700 c0 -5 9 -10 20 -10 11 0 20 5 20 10 0 6 -9 10 -20 10 -11
0 -20 -4 -20 -10z"/>
<path d="M2392 1688 c2 -15 10 -23 23 -23 30 0 27 39 -3 43 -20 3 -23 0 -20
-20z"/>
<path d="M2500 1700 c0 -5 9 -10 20 -10 11 0 20 5 20 10 0 6 -9 10 -20 10 -11
0 -20 -4 -20 -10z"/>
<path d="M2735 1690 c-3 -5 1 -10 10 -10 9 0 13 5 10 10 -3 6 -8 10 -10 10 -2
0 -7 -4 -10 -10z"/>
</g>
</svg>
